<svg xmlns="http://www.w3.org/2000/svg" id="Layer_1" data-name="Layer 1" viewBox="0 0 150 150"><defs><style>.cls-1{fill:#2b2d31;stroke-width:0}</style></defs><path d="M61.2 42.07c3.09 3.09 4.28 7.61 3.09 11.82 3.81-2.29 8.17-3.49 12.61-3.49h.09c6.53.02 12.78 2.64 17.37 7.28 3.68 3.87 9.8 4.02 13.66.34 3.87-3.68 4.02-9.8.34-13.66-.09-.1-.19-.19-.29-.29a43.757 43.757 0 0 0-31.03-12.99h-.17a43.65 43.65 0 0 0-24.5 7.46h.27c3.21 0 6.28 1.27 8.55 3.54ZM101.05 89.67c-2.55 0-5 1.01-6.81 2.8a24.556 24.556 0 0 1-17.33 7.15h-.09c-4.45 0-8.82-1.23-12.62-3.55.29 1.05.43 2.14.43 3.23 0 6.67-5.41 12.08-12.08 12.08h-.32a43.681 43.681 0 0 0 24.52 7.58h.17a43.7 43.7 0 0 0 30.94-12.76c3.79-3.76 3.81-9.88.06-13.67a9.664 9.664 0 0 0-6.86-2.86ZM44 90.75a12.02 12.02 0 0 1 8.55-3.54c1.11 0 2.21.15 3.27.45a24.52 24.52 0 0 1 .05-25.37c-6.44 1.77-13.09-2.02-14.86-8.46-.29-1.05-.43-2.13-.43-3.21v-.33c-10.11 14.85-10.15 34.36-.12 49.26v-.25c0-3.21 1.26-6.28 3.54-8.55Z" class="cls-1"/><path d="M52.66 40.68c-2.75 0-4.67 1.14-7 3.47-2.22 2.22-2.92 4.16-2.93 6.47 0 5.49 4.45 9.93 9.94 9.93 5.49 0 9.93-4.45 9.93-9.94 0-5.48-4.45-9.93-9.93-9.93ZM42.59 99.31c0 2.74 1.14 4.67 3.47 7 2.22 2.22 4.16 2.93 6.47 2.93 5.47-.02 9.89-4.46 9.87-9.93-.02-5.47-4.46-9.89-9.93-9.87-5.46.02-9.87 4.44-9.87 9.9v-.03Z" class="cls-1"/></svg>