<svg xmlns="http://www.w3.org/2000/svg" width="125" height="102"><g fill="#000" fill-rule="evenodd"><path d="m26.155 54 39.497-39.981a14.04 14.04 0 0 1 10.06-4.21c3.803 0 7.374 1.492 10.055 4.208l3.077 3.115L95 10.901l-3.077-3.115C87.6 3.41 81.843 1 75.709 1c-6.13.001-11.888 2.411-16.211 6.789L20 47.769 26.155 54Z"/><path d="m79 27.3-6.185-6.223L33.132 61c-5.573 5.606-14.64 5.608-20.211.003-5.573-5.606-5.573-14.729 0-20.335L47.163 6.221 40.978 0 6.737 34.446c-8.983 9.037-8.983 23.742 0 32.777C11.081 71.593 16.864 74 23.024 74c6.161 0 11.948-2.41 16.292-6.779L79 27.3ZM118.262 34.776C113.92 30.406 108.136 28 101.973 28c-6.161.001-11.948 2.408-16.291 6.779L46 74.7l6.182 6.222L91.867 41c5.574-5.606 14.64-5.605 20.211-.002 2.695 2.711 4.179 6.32 4.179 10.166 0 3.847-1.484 7.457-4.179 10.168L77.837 95.78 84.022 102l34.24-34.446c8.984-9.036 8.984-23.741 0-32.778"/><path d="M98.846 48 59.349 87.981c-5.548 5.613-14.571 5.616-20.116.002l-3.077-3.115L30 91.099l3.077 3.115C37.4 98.59 43.157 101 49.292 101c6.13-.001 11.887-2.411 16.211-6.789L105 54.231 98.846 48Z"/></g></svg>